<svg width="108" height="32" viewBox="0 0 108 32" fill="none" xmlns="http://www.w3.org/2000/svg">
<path d="M10.1832 28.2278C9.3153 29.3954 8.10026 30.007 6.59592 30.007C3.81869 30.007 1.90935 28.1722 1.90935 25.3921C1.90935 22.6677 3.81869 20.7773 6.48021 20.7773C7.98454 20.7773 9.19958 21.3889 10.0675 22.5565L10.1253 22.6121L11.3982 21.3889L11.3404 21.3333C10.1832 19.8877 8.33169 19.0537 6.36449 19.0537C4.62872 19.1093 3.00867 19.7765 1.85149 20.9441C0.694308 22.1117 0 23.7241 0 25.4477C0 29.0618 2.77723 31.7306 6.48021 31.7306C8.38955 31.7306 10.241 30.8966 11.4561 29.451L11.5139 29.3954L10.1832 28.2278Z" fill="black"/>
<path d="M16.4322 23.6139L13.9443 19.4438H11.8613L15.4486 25.5043V31.3979H17.3579V25.5043L21.003 19.4438H18.9201L16.4322 23.6139Z" fill="black"/>
<path d="M29.2771 25.2819C30.2028 24.7259 30.7235 23.7807 30.7235 22.7243C30.7235 20.8339 29.0456 19.4438 26.7891 19.4438H22.334V31.3979H26.9627C29.2771 31.3979 30.8971 30.0079 30.8971 28.0063C30.8971 26.7831 30.3185 25.8379 29.2771 25.2819ZM24.2433 26.2271H27.0784C28.5249 26.2271 29.0456 27.1167 29.0456 27.9507C29.0456 29.0627 28.0042 29.6743 27.0784 29.6743H24.2433V26.2271ZM26.847 24.4479H24.1855V21.1675H26.847C27.7727 21.1675 28.8142 21.6123 28.8142 22.8355C28.8142 24.0587 27.8306 24.4479 26.847 24.4479Z" fill="black"/>
<path d="M33.0371 31.3979H40.6166V29.6743H34.9465V26.2271H40.4431V24.4479H34.9465V21.1675H40.6166V19.4438H33.0371V31.3979Z" fill="black"/>
<path d="M50.569 25.2819C51.3212 24.6703 51.7841 23.7807 51.7841 22.8355C51.7841 20.5003 49.759 19.4438 47.9075 19.4438H42.7002V31.3979H44.6095V26.1715H45.0146L51.1476 31.3423H51.5526V29.2851L47.6182 26.1159H47.7918C48.8911 26.2271 49.8169 25.8935 50.569 25.2819ZM48.0232 24.4479H44.6095V21.1675H48.0232C48.949 21.1675 49.9326 21.7235 49.9326 22.8355C49.8747 23.8919 48.8911 24.4479 48.0232 24.4479Z" fill="black"/>
<path d="M60.3474 24.4479H55.7765V19.4438H53.8672V31.3979H55.7765V26.2271H60.3474V31.3979H62.2567V19.4438H60.3474V24.4479Z" fill="black"/>
<path d="M64.918 31.3979H72.7868V29.6743H66.8273V26.2271H72.7868V24.4479H66.8273V21.1675H72.7868V19.4438H64.918V31.3979Z" fill="black"/>
<path d="M79.9615 19.4438H74.9277V31.3979H79.9615C82.1601 31.3979 83.838 29.8411 83.838 27.7839V23.0579C83.838 21.0007 82.1601 19.4438 79.9615 19.4438ZM80.0193 29.6743H76.7792V21.1675H80.0193C80.9451 21.1675 81.9287 21.7235 81.9287 23.0023V27.8951C81.9287 29.1183 80.9451 29.6743 80.0193 29.6743Z" fill="black"/>
<path d="M89.4498 24.6137V26.3373H96.3929C96.2193 28.4501 94.3678 29.9513 91.9377 29.9513C89.2762 29.9513 87.4247 28.1165 87.4247 25.3921C87.4247 22.6677 89.2184 20.7773 91.9377 20.7773C93.4999 20.7773 94.8307 21.3889 95.6986 22.5565L95.7564 22.6121L97.0872 21.3333L97.0293 21.2777C95.7564 19.8321 94.0207 18.998 92.0535 18.998C88.3505 18.998 85.5732 21.7225 85.5732 25.3365C85.5732 27.0601 86.2097 28.6169 87.4247 29.8401C88.6398 31.0077 90.2598 31.6749 91.9956 31.6749C95.2357 31.6749 98.1286 29.1729 98.3022 26.1705L96.6243 24.6137H89.4498Z" fill="black"/>
<path d="M107.675 21.1675V19.4438H99.8066V31.3979H107.675V29.6743H101.716V26.2271H107.675V24.4479H101.716V21.1675H107.675Z" fill="black"/>
<path d="M8.955 3.57297C8.955 2.64297 8.655 1.87797 8.145 1.32297C7.575 0.707969 6.69 0.362969 5.445 0.362969H1.5V10.998H2.835V6.87297H5.46C6.63 6.87297 7.5 6.55797 8.07 5.98797C8.64 5.41797 8.955 4.60797 8.955 3.57297ZM7.575 3.57297C7.575 4.99797 6.855 5.65797 5.43 5.65797H2.835V1.57797H5.415C6.735 1.57797 7.575 2.22297 7.575 3.57297Z" fill="black"/>
<path d="M16.5946 7.20297C16.5946 6.00297 16.3396 4.90797 15.5146 4.09797C14.9596 3.55797 14.1796 3.21297 13.2196 3.21297C12.2596 3.21297 11.4796 3.55797 10.9246 4.09797C10.0996 4.90797 9.84457 6.00297 9.84457 7.20297C9.84457 8.40297 10.0996 9.49797 10.9246 10.308C11.4796 10.848 12.2596 11.193 13.2196 11.193C14.1796 11.193 14.9596 10.848 15.5146 10.308C16.3396 9.49797 16.5946 8.40297 16.5946 7.20297ZM15.2896 7.20297C15.2896 8.08797 15.1246 9.00297 14.5846 9.55797C14.2696 9.87297 13.8196 10.098 13.2196 10.098C12.6196 10.098 12.1696 9.87297 11.8546 9.55797C11.3146 9.00297 11.1496 8.08797 11.1496 7.20297C11.1496 6.31797 11.3146 5.40297 11.8546 4.84797C12.1696 4.53297 12.6196 4.30797 13.2196 4.30797C13.8196 4.30797 14.2696 4.53297 14.5846 4.84797C15.1246 5.40297 15.2896 6.31797 15.2896 7.20297Z" fill="black"/>
<path d="M28.1106 3.40797H26.8656L25.3956 9.13797L23.4906 3.49797H22.3956L20.4606 9.13797L19.0056 3.40797H17.7456L19.6956 10.998H20.9106L22.9356 5.19297L24.9156 10.998H26.1456L28.1106 3.40797Z" fill="black"/>
<path d="M35.9664 6.85797C35.9814 5.83797 35.6214 4.86297 35.0064 4.18797C34.4514 3.58797 33.6714 3.21297 32.6964 3.21297C31.3764 3.21297 30.3714 3.88797 29.8314 4.80297C29.4114 5.50797 29.2464 6.31797 29.2464 7.23297C29.2464 8.31297 29.5614 9.31797 30.1914 10.053C30.7764 10.743 31.6464 11.193 32.7114 11.193C33.4314 11.193 34.1064 10.983 34.6464 10.623C35.2614 10.203 35.7114 9.49797 35.8164 8.74797H34.5714C34.4664 9.15297 34.3314 9.36297 34.1214 9.57297C33.8064 9.90297 33.3114 10.068 32.7114 10.068C32.1264 10.068 31.6614 9.87297 31.3164 9.52797C30.8514 9.06297 30.5814 8.31297 30.5814 7.62297H35.9514L35.9664 6.85797ZM34.6614 6.52797H30.6114C30.6414 5.41797 31.3164 4.29297 32.6964 4.29297C33.3714 4.29297 33.8814 4.56297 34.1964 4.98297C34.4964 5.38797 34.6614 5.95797 34.6614 6.52797Z" fill="black"/>
<path d="M42.0531 4.65297V3.40797C41.8581 3.37797 41.6481 3.36297 41.4531 3.36297C40.4931 3.36297 39.5781 3.81297 39.1881 4.74297L39.0831 3.40797H37.9581V10.998H39.2181V7.62297C39.2181 6.82797 39.2931 5.77797 39.9081 5.19297C40.2531 4.86297 40.7481 4.59297 41.3481 4.59297C41.5731 4.59297 41.8281 4.60797 42.0531 4.65297Z" fill="black"/>
<path d="M49.5384 6.85797C49.5534 5.83797 49.1934 4.86297 48.5784 4.18797C48.0234 3.58797 47.2434 3.21297 46.2684 3.21297C44.9484 3.21297 43.9434 3.88797 43.4034 4.80297C42.9834 5.50797 42.8184 6.31797 42.8184 7.23297C42.8184 8.31297 43.1334 9.31797 43.7634 10.053C44.3484 10.743 45.2184 11.193 46.2834 11.193C47.0034 11.193 47.6784 10.983 48.2184 10.623C48.8334 10.203 49.2834 9.49797 49.3884 8.74797H48.1434C48.0384 9.15297 47.9034 9.36297 47.6934 9.57297C47.3784 9.90297 46.8834 10.068 46.2834 10.068C45.6984 10.068 45.2334 9.87297 44.8884 9.52797C44.4234 9.06297 44.1534 8.31297 44.1534 7.62297H49.5234L49.5384 6.85797ZM48.2334 6.52797H44.1834C44.2134 5.41797 44.8884 4.29297 46.2684 4.29297C46.9434 4.29297 47.4534 4.56297 47.7684 4.98297C48.0684 5.38797 48.2334 5.95797 48.2334 6.52797Z" fill="black"/>
<path d="M57.6652 10.998V0.167969H56.3902V4.29297C55.9852 3.60297 55.0102 3.21297 54.1852 3.21297C53.3002 3.21297 52.5952 3.51297 52.1002 3.97797C51.3352 4.71297 50.9452 5.91297 50.9452 7.21797C50.9452 8.47797 51.3202 9.63297 52.0402 10.368C52.5352 10.878 53.2552 11.193 54.1852 11.193C55.0402 11.193 56.0152 10.773 56.4502 10.008L56.5402 10.998H57.6652ZM56.4652 7.20297C56.4652 8.14797 56.2552 9.06297 55.6252 9.61797C55.3252 9.88797 54.9502 10.113 54.3952 10.113C52.7002 10.113 52.2502 8.59797 52.2502 7.20297C52.2502 5.80797 52.7002 4.29297 54.3952 4.29297C54.9502 4.29297 55.3252 4.51797 55.6252 4.78797C56.2552 5.34297 56.4652 6.25797 56.4652 7.20297Z" fill="black"/>
<path d="M70.3281 7.21797C70.3281 5.91297 69.9381 4.71297 69.1731 3.97797C68.6781 3.51297 67.9731 3.21297 67.0881 3.21297C66.2631 3.21297 65.2881 3.60297 64.8831 4.29297V0.167969H63.6081V10.998H64.7331L64.8231 10.008C65.2581 10.773 66.2331 11.193 67.0881 11.193C68.0181 11.193 68.7381 10.878 69.2331 10.368C69.9531 9.63297 70.3281 8.47797 70.3281 7.21797ZM69.0231 7.20297C69.0231 8.59797 68.5731 10.113 66.8781 10.113C66.3231 10.113 65.9481 9.88797 65.6481 9.61797C65.0181 9.06297 64.8081 8.14797 64.8081 7.20297C64.8081 6.25797 65.0181 5.34297 65.6481 4.78797C65.9481 4.51797 66.3231 4.29297 66.8781 4.29297C68.5731 4.29297 69.0231 5.80797 69.0231 7.20297Z" fill="black"/>
<path d="M78.0843 3.40797H76.7493L74.6193 9.39297L72.3843 3.40797H70.9443L73.9743 10.998L73.4943 12.273C73.2843 12.843 72.8943 13.038 72.3543 13.038C71.8593 13.038 71.4543 12.918 71.4543 12.918V14.028C71.5593 14.058 71.9793 14.178 72.6093 14.178C73.7493 14.178 74.3043 13.533 74.6643 12.558L78.0843 3.40797Z" fill="black"/>
</svg>
