<svg width="36" height="36" viewBox="0 0 36 36" fill="none" xmlns="http://www.w3.org/2000/svg">
<circle opacity="0.3" cx="18" cy="18" r="18" fill="#343E47"/>
<path d="M23.798 13.555C23.798 10.342 21.179 8.425 18.128 8.425C14.159 8.425 12.08 11.314 12.08 14.365H14.51C14.51 12.259 15.779 10.504 18.128 10.504C19.1 10.504 20.018 10.855 20.612 11.476C21.125 12.016 21.422 12.718 21.422 13.528C21.422 14.986 20.855 15.823 19.775 16.66C17.642 18.307 16.751 19.252 16.751 22.141V22.897H18.965V22.222C18.965 20.575 19.154 19.792 20.882 18.523C22.718 17.173 23.798 15.715 23.798 13.555ZM19.262 28V25.03H16.4V28H19.262Z" fill="white"/>
</svg>
